<?xml version="1.0" encoding="UTF-8"?>
<svg version="1.1" viewBox="0 0 100 100" xmlns="http://www.w3.org/2000/svg">
 <path d="m81.5 38.5c-0.39844 0.5-0.89844 1.1016-1.5 1.6992-0.60156 0.60156-1.3984 1-2.3008 1-0.80078 0-1.6016-0.60156-2.1016-1.3008-0.60156-0.60156-1-1.3008-1.3008-1.8984-0.69922-1.1016-1.1016-1.8984-1.1992-1.8008-0.10156 0 0.10156 0.89844 0.60156 2.1992 0.30078 0.60156 0.69922 1.3984 1.3008 2.1016 0.30078 0.39844 0.69922 0.69922 1.1016 1 0.19922 0.19922 0.5 0.30078 0.89844 0.39844l-2.1992 5.8984-9.6992 1.2031c-1.1016-4.1992-2.8008-8.5-5.6016-12.102l-0.30078-0.30078h-0.39844c-0.5 0-6.1016 0.60156-12.898 1.8984-0.10156-0.5-0.39844-1.1016-0.89844-1.8984-0.30078-0.39844-0.60156-0.80078-1-1.1016-0.5-0.30078-1.1016-0.60156-1.6992-0.69922-1-0.10156-1.8984 0-2.8984 0.10156 0.10156-0.60156 0.30078-1.8008 0.5-3.6016 0.10156-1.1992 0.19922-2.6992 0.39844-4.3008 0.10156-0.80078 0.10156-1.6992 0.19922-2.5 0.10156-1.3984 0.19922-2.8984 0.30078-4.3984l-0.003907-0.097656c-0.89844 1.1016-1.8008 2.1992-2.6992 3.1992l-0.39844 0.5v0.10156-0.10156c0-0.60156 0.10156-1.1016 0.10156-1.6992 0-1.1016 0.10156-2 0.10156-2.8008v-2c1.3008-0.10156 2.5-0.5 3.3008-1.1992 1.3008-1 1.6992-2.3008 1.8984-3.1992 0.10156-0.89844 0-1.3008 0-1.3008-0.10156 0-0.10156 0.5-0.39844 1.1992-0.19922 0.69922-0.80078 1.8008-1.8984 2.6016-1.1016 0.80078-2.8984 1.1992-4.5 0.60156-1.6992-0.60156-3.1016-2.3984-3.1016-4.3984 0-2.1016 1.3984-3.8008 3.1016-4.3984 1.6992-0.60156 3.3984-0.19922 4.5 0.60156 1.1016 0.80078 1.6992 1.8984 1.8984 2.6016 0.30078 0.80078 0.30078 1.1992 0.39844 1.1992 0.10156 0 0.19922-0.5 0-1.3008-0.30078-0.89844-0.80078-2.1992-2-3.1992s-3.3008-1.6992-5.3984-0.89844c-1 0.30078-2 1-2.6992 2-0.69922 0.89844-1.1016 2.1992-1.1016 3.3984 0 1.3008 0.39844 2.5 1.1016 3.3984 0.69922 1 1.6992 1.6016 2.6992 2 0.60156 0.19922 1.1992 0.30078 1.8008 0.30078-0.10156 0.39844-0.19922 1.1016-0.30078 1.8984-0.10156 0.80078-0.19922 1.6992-0.30078 2.6992-0.10156 0.5-0.10156 1.1016-0.19922 1.6992-0.10156 1.1016-0.19922 2.3008-0.30078 3.3984 0.80078-1 1.6992-2 2.6016-3 0.80078-0.89844 0.5-0.5 0.5-0.60156 0 0.39844 0 0.80078-0.10156 1.1016 0 0.89844-0.10156 1.6992-0.10156 2.6016-0.10156 1.6016-0.10156 3.1016-0.10156 4.3008 0 1.8008 0 3.1016 0.10156 3.6992-0.19922 0-0.39844 0.10156-0.60156 0.10156-0.30078 0-0.60156 0.10156-0.89844 0.10156-0.30078 0.10156-0.69922 0.10156-1 0.19922-0.69922 0.19922-1.1992 0.69922-1.6992 1.1016-0.80078 1-1 2.1016-1.1016 3-0.10156 0.89844 0 1.6016 0.10156 2.1016-5.1992 1.8008-10 4.1016-12.898 7l-0.20703 0.19141v0.30078c0 0.10156-0.19922 6.8984 0.89844 13.301-3.1992 2.3008-6.6992 6.1016-7.3008 11.699-1.1016 0.10156-1.8984 0.80078-2.5 1.3984-0.60156 0.69922-1.1016 1.3984-1.3984 2-0.60156 1.1992-0.80078 2.1016-0.69922 2.1016s0.5-0.69922 1.3008-1.8008c0.39844-0.5 0.80078-1.1992 1.3984-1.8008 0.60156-0.60156 1.3984-1.1016 2.1992-1.1016 0.80078 0 1.6016 0.60156 2.1992 1.1016 0.60156 0.60156 1.1016 1.3008 1.3984 1.8008 0.69922 1.1016 1.1992 1.8008 1.3008 1.8008s-0.10156-0.89844-0.69922-2.1016c-0.30078-0.60156-0.69922-1.3008-1.3984-2-0.30078-0.30078-0.60156-0.60156-1-0.89844 0.39844-4.8008 3-7.8984 5.6016-9.8984 0.89844 4.1016 2.1992 6.8008 4 8.1992l0.19922 0.10156h0.19922c0.69922 0.10156 4.3984 0.69922 7.6016 1.1016 0.10156 0.80078 0.39844 2.1016 0.80078 3.8984 0.30078 1.3984 0.80078 3.1016 1.3008 5 0.30078 0.89844 0.5 1.8984 0.80078 2.8984 0.19922 0.69922 0.39844 1.3984 0.60156 2.1992h-8.1016l-0.003906 6.8984h13.602v-6.8984h-0.69922c0-0.80078 0-1.6992-0.10156-2.5 0-1-0.10156-2-0.10156-3-0.10156-1.8984-0.19922-3.6016-0.30078-5-0.10156-1.8008-0.30078-3.1016-0.39844-3.8984 2.8984-1 7.8984-2.6992 12.699-4.3984 0.10156 0.39844 0.39844 1.3008 0.89844 2.6016 0.30078 0.89844 0.80078 1.8984 1.3008 3.1016 0.5 1.1016 1.1016 2.3984 1.6992 3.8008-0.30078 1.3008-0.69922 2.8008-1.1016 4.3008-0.30078 1.3984-0.69922 3-1.1016 4.5l-2.0938-0.007813v6.8008h14.199v-6.8008h-7.3984c0.69922-1.6016 1.3008-3.1992 1.8984-4.6992 0.80078-1.8984 1.5-3.6992 2.1016-5.3984-0.30078-0.89844-0.60156-1.8008-0.89844-2.6992-0.30078-0.80078-0.5-1.5-0.69922-2.1992-0.5-1.3984-0.89844-2.6016-1.3008-3.5-0.39844-1.1016-0.80078-2-1-2.5 2.6992-1.1016 4.8984-2.1016 5.6992-2.8008l0.30078-0.19922v-0.30078c0-0.39844 0.19922-5.3984-1-11.5l10.602-1.1992 1.3008-8.8008c1.1992 0 2.1992-0.69922 2.8008-1.3008 0.69922-0.69922 1.1016-1.3984 1.5-2 0.69922-1.1992 0.89844-2.1016 0.80078-2.1016-0.20703 0.29688-0.60547 0.99609-1.4062 2.0977zm-50.398 51.301h4.6992l-1.8984 3.8984h-2.6992v-3.8984zm3.6992 3.8008 1.8984-3.8984h1.5v0.10156h1.8984 1.5v3.8008zm20.699-4.3008h0.19922v0.10156h1.6016c-0.5 0.19922-0.80078 0.69922-0.80078 1.1992 0 0.60156 0.39844 1.1016 0.89844 1.3008 0.5 0.19922 1 0 1.1992-0.19922 0.30078-0.19922 0.39844-0.5 0.39844-0.69922 0-0.19922 0-0.30078-0.10156-0.30078-0.10156 0-0.10156 0.39844-0.60156 0.69922-0.19922 0.10156-0.5 0.19922-0.80078 0.10156-0.29297-0.20312-0.49219-0.50391-0.49219-0.80469 0-0.39844 0.19922-0.69922 0.5-0.80078 0.30078-0.10156 0.60156-0.10156 0.80078 0.10156 0.39844 0.30078 0.5 0.69922 0.60156 0.69922 0 0 0.10156-0.10156 0.10156-0.30078 0-0.19922-0.10156-0.5-0.39844-0.69922-0.10156-0.10156-0.19922-0.10156-0.30078-0.19922h1.8008v-0.10156h2.6992l1.8008 3.8008h-9.1016zm11.102 3.8984h-1.1016l-1.8008-3.8008h2.8984zm-31.902-53.5c0.19922-0.80078 0.5-1.6992 1.1016-2.3984 0.30078-0.30078 0.69922-0.60156 1.1992-0.80078 0.19922-0.10156 0.5-0.10156 0.80078-0.10156s0.60156-0.10156 1-0.10156c1.3008-0.10156 2.5-0.39844 3.5-0.30078 1 0 1.6992 0.60156 2.1992 1.1992 0.5 0.60156 0.80078 1.1016 1 1.5-2.6016 0.5-5.3984 1.1992-8.1016 2 0.10156-0.30078 0.10156-0.69922 0.19922-1.1016 0.19922-1.1992 0.30078-2.1016 0.10156-2.1992-0.19922 0-0.60156 0.89844-0.69922 2.1016-0.10156 0.5-0.10156 0.89844-0.10156 1.3008-0.80078 0.19922-1.6016 0.5-2.3984 0.69922 0-0.39453 0-0.99609 0.19922-1.7969zm-18.898 34.699c-0.19922-0.10156-0.30078-0.10156-0.5-0.10156 1.1992-9.8984 11.898-13.898 12-13.898l0.30078-0.10156v-0.29688-0.60156c0.19922 0.19922 0.5 0.80078 0.5 1.6992-0.20312-0.097656-11.102 2.8008-12.301 13.301zm9.6992-14.898c0-0.60156 0-1.6016 0.19922-2.6992 0.10156-0.5 0.39844-1.1016 0.80078-1.3984 0.39844-0.30078 1 0 1.5 0.5 1 1 1.6992 2.6016 2.1992 4.1992 0.39844 1.6992 0.60156 3.3984 0.19922 4.6992-0.19922 0.69922-0.60156 1.1016-1.1016 1.1016s-1-0.39844-1.3984-0.80078c-0.80078-0.80078-1.1992-1.6992-1.5-2.1992-0.10156-0.19922-0.19922-0.30078-0.19922-0.39844 0.5-0.19922 0.89844-0.39844 1.1992-0.5 0 0.10156 0.10156 0.19922 0.19922 0.5 0.10156 0.19922 0.19922 0.30078 0.39844 0.5 0.19922 0.19922 0.5 0.39844 0.89844 0.30078 0.39844-0.19922 0.60156-0.60156 0.69922-1 0.10156-0.39844 0.10156-0.80078 0.10156-1.1992 0-0.89844-0.19922-1.8008-0.60156-2.6992-0.19922-0.5-0.39844-0.89844-0.69922-1.3008-0.30078-0.39844-0.60156-0.80078-1.1016-0.89844-0.30078 0-0.60156 0.10156-0.69922 0.30078-0.10156 0.19922-0.19922 0.39844-0.19922 0.60156-0.10156 0.39844-0.10156 0.69922-0.10156 1.1016 0 0.60156 0.10156 1.1016 0.19922 1.3984-0.19922 0.10156-0.5 0.19922-0.89844 0.39844-0.09375-0.007812-0.09375-0.20703-0.09375-0.50781zm2.8008 2.1992h0.10156c0.19922 0 0.39844-0.10156 0.5-0.30078 0.19922-1.3008-0.19922-2.3984-0.80078-2.8984-0.30078-0.19922-0.60156-0.19922-0.89844-0.10156-0.30078 0.19922-0.5 0.60156-0.39844 1.1992h-0.10156c0-0.30078-0.10156-0.80078-0.10156-1.3008 0-0.30078 0-0.60156 0.10156-1 0.10156-0.30078 0.30078-0.60156 0.5-0.60156 0.30078 0 0.60156 0.39844 0.80078 0.69922 0.19922 0.39844 0.39844 0.80078 0.60156 1.1992 0.30078 0.89844 0.5 1.6992 0.60156 2.5v1.1016c-0.10156 0.30078-0.19922 0.60156-0.39844 0.69922-0.19922 0.10156-0.39844-0.10156-0.60156-0.19922-0.19922-0.10156-0.30078-0.30078-0.39844-0.39844-0.19922-0.19922-0.30078-0.30078-0.30078-0.39844 0.39063-0.097657 0.69141-0.19922 0.79297-0.19922zm12.5 16.102c0 1.3984-0.10156 3.1016-0.10156 5v5.3984h-1.3008c-0.60156-1.8984-1.1992-3.8008-1.6992-5.3984-0.60156-1.8008-1.1992-3.5-1.6016-4.8008-0.60156-1.6016-1-2.8008-1.3984-3.5 1.6016 0.19922 3 0.30078 3.8008 0.30078h0.39844 0.10156c0.19922-0.10156 0.89844-0.30078 1.8984-0.60156 0.10156 0.69922 0 1.9023-0.097657 3.6016zm20.301-8.1016c0.19922 1 0.60156 2.1992 0.89844 3.6016 0.39844 1.3008 0.80078 2.8008 1.1992 4.3984-0.60156 1.5-1.3008 3.1016-2.1016 4.8008-0.69922 1.6992-1.3984 3.3984-2.1992 5.1992h-1.1016c0.69922-3.3008 1.3008-6.3008 1.8984-8.8984-0.39844-0.80078-0.80078-1.6016-1.1992-2.3008-0.30078-0.69922-0.69922-1.3008-1-1.8008-0.60156-1.1992-1.1016-2.1992-1.6016-3-0.69922-1.1992-1.1992-2-1.3984-2.3008 2.1016-0.80078 4.1992-1.6016 6-2.3008 0.10547 0.60156 0.30469 1.4023 0.60547 2.6016zm4.1992-6.5c-3.1992 2.1992-20.102 7.8984-26.602 10-1.3008 0.10156-7.6016-0.80078-11.801-1.3984-1.5-1.3008-2.6016-4-3.3984-7.8984 0.89844-0.60156 1.6992-1 2.3984-1.3008 0 0.10156 0.10156 0.30078 0.10156 0.5 0.19922 0.60156 0.60156 1.6016 1.3008 2.5 0.39844 0.5 0.89844 1 1.8008 1.1992 0.39844 0.10156 1-0.10156 1.3008-0.5 0.30078-0.30078 0.5-0.69922 0.69922-1.1016 0.5-1.6016 0.39844-3.5-0.10156-5.3008-0.5-1.8008-1.1992-3.3984-2.5-4.6016-0.30078-0.30078-0.69922-0.5-1.1016-0.69922-0.39844-0.10156-1-0.10156-1.3984 0.19922-0.80078 0.5-0.89844 1.3008-1.1016 1.8984-0.19922 1.1992-0.10156 2.1992 0.10156 2.8984 0.10156 0.30078 0.10156 0.5 0.19922 0.69922-0.60156 0.30078-1.3984 0.69922-2.1992 1.3008-0.80078-5.3008-0.80078-10.699-0.69922-12 8.3008-8.1992 32.801-11 36.301-11.398 6.5977 8.7031 6.7969 22.605 6.6992 25.004zm0.39844-11.898c-0.10156-0.5-0.19922-1-0.30078-1.5l9.8984-1.1016 1.1016-3-0.69922 4.5zm-29.801 2.5c-0.60156-2.5-1.1992-4.8984-1.6992-7.1016-0.80078 0.10156-1.6016 0.30078-2.3008 0.39844-0.60156 0.10156-1.1016 0.19922-1.6992 0.30078-1.1016 0.19922-2 0.39844-2.6992 0.5-1.5 0.30078-2.3984 0.5-2.3984 0.60156s0.89844 0.10156 2.5-0.10156c0.80078-0.10156 1.6992-0.19922 2.8008-0.30078 0.89844-0.10156 2-0.19922 3.1016-0.39844 0 0.10156 0.10156 0.69922 0.19922 1.1016 0.10156 0.5 0.19922 1.1016 0.30078 1.6016 0.19922 1.1016 0.5 2.3008 0.80078 3.5 0.89844 4.1992 1.8984 8 2.6016 10.699 0.69922 2.6992 1.1992 4.3984 1.3984 4.3984 0.19922 0-0.10156-1.8008-0.60156-4.5-0.50391-2.6992-1.3047-6.5-2.3047-10.699zm-1.3984 3.3008c-0.60156-2.8008-1.3008-5.3984-1.8008-7.6992-1.3984 0.19922-2.6992 0.39844-3.8984 0.60156-1.1016 0.19922-2 0.39844-2.6992 0.5-1.5 0.30078-2.3984 0.5-2.3984 0.60156 0 0.10156 0.89844 0 2.3984-0.10156 0.80078-0.10156 1.6992-0.19922 2.8008-0.30078 0.89844-0.10156 2-0.19922 3.1992-0.39844 0.19922 1 0.39844 2 0.69922 3.1016 0.30078 1.1992 0.60156 2.5 0.89844 3.8008 1 4.3984 1.8984 8.3984 2.6992 11.199 0.69922 2.8984 1.3008 4.6016 1.3984 4.6016 0.10156 0-0.19922-1.8008-0.69922-4.6992-0.69922-2.8086-1.5977-6.8086-2.5977-11.207zm8.1992-3c0.10156 0.19922 0.10156 0.30078 0.19922 0.5 0.19922 0.39844 0.69922 0.69922 1.1016 0.69922 0.19922 0 0.5-0.10156 0.60156-0.10156 0.10156-0.10156 0.30078-0.10156 0.39844-0.19922 0.30078-0.10156 0.5-0.19922 0.80078-0.30078 1.8984-0.80078 3.1016-1.3008 3-1.3984-0.10156-0.10156-1.3008 0.19922-3.1992 0.80078-0.19922 0.10156-0.5 0.19922-0.80078 0.19922-0.10156 0-0.30078 0.10156-0.39844 0.10156-0.19922 0.10156-0.19922 0.10156-0.30078 0-0.19922 0-0.30078-0.10156-0.39844-0.30078 0 0-0.10156-0.30078-0.10156-0.39844-0.10156-0.19922-0.10156-0.30078-0.19922-0.5-0.19922-0.60156-0.5-1.3008-0.69922-2l-0.19922-0.5-0.10156-0.30078v-0.10156c0-0.19922 0.10156-0.39844 0.30078-0.39844 1.5-0.5 2.8984-1.1016 4.1992-1.5l0.19922-0.10156h0.10156 0.30078c0.10156 0 0.10156 0.10156 0.19922 0.19922 0 0 0 0.10156 0.10156 0.10156l0.10156 0.19922c0.19922 0.60156 0.39844 1.1016 0.60156 1.6016 0.19922 0.5 0.39844 0.89844 0.5 1.3008 0.10156 0.19922 0.19922 0.39844 0.19922 0.5s0.10156 0.30078 0 0.39844c-0.10156 0.5-0.39844 0.60156-0.39844 0.69922h0.30078c0.19922-0.10156 0.39844-0.19922 0.5-0.60156 0.10156-0.19922 0.10156-0.39844 0-0.60156 0-0.19922-0.10156-0.39844-0.19922-0.60156-0.10156-0.39844-0.30078-0.80078-0.39844-1.3008-0.19922-0.5-0.30078-1-0.5-1.6016l-0.10156-0.19922c0-0.10156-0.10156-0.19922-0.10156-0.30078-0.10156-0.19922-0.30078-0.39844-0.5-0.5-0.19922-0.10156-0.39844-0.19922-0.69922-0.19922-0.10156 0-0.19922 0-0.39844 0.10156l-0.19922 0.10156c-1.3008 0.39844-2.6992 0.89844-4.1992 1.5-0.60156 0.19922-1 0.80078-0.89844 1.3984 0 0.10156 0 0.30078 0.10156 0.39844l0.10156 0.30078 0.19922 0.5c0.30078 0.69922 0.5 1.3984 0.69922 2 0.085937 0.10547 0.18359 0.20313 0.18359 0.40625zm15.199-12.402-0.10156-0.30078c0-0.10156-0.10156-0.19922-0.19922-0.30078-0.19922-0.39844-0.69922-0.80078-1.1992-0.89844-0.30078-0.10156-0.5-0.10156-0.80078-0.10156-0.30078 0-0.5 0.10156-0.69922 0.19922-0.39844 0.10156-0.80078 0.30078-1.1992 0.39844-0.80078 0.30078-1.6016 0.60156-2.5 0.89844-0.60156 0.19922-1.1016 0.69922-1.3008 1.3008 0.10156 0.10547 0.10156 0.40625 0.10156 0.70703 0 0.30078 0.10156 0.60156 0.19922 0.80078 0.30078 0.80078 0.60156 1.6016 0.89844 2.3008 0.10156 0.39844 0.30078 0.69922 0.39844 1.1016l0.10156 0.30078c0 0.10156 0.10156 0.19922 0.10156 0.30078 0.10156 0.19922 0.30078 0.39844 0.39844 0.5 0.30078 0.30078 0.80078 0.39844 1.1992 0.5 0.39844 0 0.80078-0.10156 1.1016-0.19922 2.1992-0.89844 3.5-1.5 3.3984-1.6992-0.10156-0.19922-1.5 0.19922-3.6992 0.89844-0.30078 0.10156-0.5 0.19922-0.69922 0.10156-0.19922 0-0.39844-0.10156-0.60156-0.30078-0.10156-0.10156-0.19922-0.19922-0.19922-0.30078s-0.10156-0.30078-0.19922-0.39844c-0.10156-0.30078-0.19922-0.69922-0.39844-1.1016-0.30078-0.69922-0.5-1.5-0.80078-2.3008-0.10156-0.19922-0.10156-0.30078-0.10156-0.5 0-0.10156 0-0.30078 0.10156-0.39844 0.10156-0.30078 0.30078-0.5 0.60156-0.60156 0.80078-0.30078 1.6992-0.60156 2.5-0.89844 0.39844-0.10156 0.80078-0.30078 1.1992-0.39844 0.19922-0.10156 0.30078-0.10156 0.39844-0.10156h0.39844c0.19922 0.10156 0.5 0.19922 0.60156 0.39844 0.10156 0.10156 0.10156 0.19922 0.19922 0.39844 0.10156 0.19922 0.10156 0.30078 0.19922 0.5 0.30078 0.60156 0.5 1.1992 0.69922 1.8008 0.19922 0.5 0.39844 1 0.60156 1.3984 0.10156 0.39844 0.10156 0.69922-0.10156 1-0.30078 0.5-0.60156 0.69922-0.60156 0.69922 0 0.10156 0.5 0.10156 1-0.5 0.19922-0.30078 0.39844-0.80078 0.30078-1.3008-0.10156-0.5-0.30078-1-0.5-1.6016-0.19922-0.60156-0.39844-1.1992-0.60156-1.8008-0.09375-0.19922-0.09375-0.39844-0.19531-0.5zm27.5-18.301h-0.39844-0.30078c-0.19922 0-0.39844 0-0.5 0.10156-0.69922 0.10156-1.1992 0.39844-1.6992 0.60156-1.8984 1.1016-3 2.3008-3.6992 3.1992-0.69922 0.89844-1 1.5-0.89844 1.6016 0.10156 0.10156 0.60156-0.30078 1.5-1 0.89844-0.60156 2.1016-1.6992 3.8008-2.3984 0.39844-0.19922 0.80078-0.30078 1.1992-0.30078 0.5 0 0.5 0 0.5 0.10156v0.10156c0 0.10156-0.10156 0.39844-0.19922 0.69922-0.19922 0.5-0.5 1-0.80078 1.6016-1.3008 2.1992-2.8984 4.5-4.6992 6.8984-0.30078 0.39844-0.5 0.69922-0.80078 1.1016-0.10156 0.10156 0 0 0 0.10156l-0.10156-0.10156-0.30078-0.40625c-0.39844-0.5-0.80078-1-1.1992-1.3984-0.69922-1-1.3984-1.8984-2-2.8984-0.60156-0.89844-1.1016-1.8984-1.5-2.8008-0.10156-0.19922-0.19922-0.39844-0.19922-0.5s-0.10156-0.10156-0.10156-0.20312c0-0.19922 0.10156-0.30078 0.19922-0.30078h0.30078c0.10156 0 0.30078 0.10156 0.5 0.10156 0.30078 0.10156 0.69922 0.19922 1 0.39844 0.60156 0.19922 1.1016 0.5 1.6016 0.69922 0.89844 0.39844 1.3984 0.60156 1.3984 0.5 0.10156-0.10156-0.30078-0.5-1-1.1992-0.39844-0.30078-0.89844-0.69922-1.5-1-0.30078-0.19922-0.60156-0.39844-1-0.60156-0.19922-0.10156-0.39844-0.19922-0.60156-0.30078-0.19922-0.10156-0.60156-0.19922-1-0.19922-0.30078 0-0.69922 0.10156-1 0.30078-0.30078 0.19922-0.5 0.5-0.60156 0.89844s0 0.80078 0 1.1992c0.10156 0.30078 0.19922 0.60156 0.30078 0.89844 0.39844 1 0.80078 2 1.3984 3.1016 0.60156 1.1016 1.1992 2.1016 2 3.1992 0.39844 0.5 0.80078 1.1016 1.1992 1.6016l0.30078 0.39844 0.19922 0.30078 0.30078 0.39844c0.5 0.5 0.89844 0.89844 1.3984 1.3984 0.5-0.69922 1.1016-1.3984 1.6016-2.1016 0.30078-0.39844 0.60156-0.80078 0.89844-1.1016 1.8008-2.5 3.5-4.8984 4.6992-7.3008 0.30078-0.60156 0.60156-1.1992 0.80078-1.8984 0.10156-0.39844 0.19922-0.60156 0.30078-1.1016 0.10156-0.5 0-1.1016-0.19922-1.5-0.19531-0.58984-0.69531-0.78906-1.0977-0.89062zm-44.898-15.297h-0.5c-0.30078 0.10156-0.60156 0.19922-0.80078 0.30078-0.89844 0.5-1.3984 1.1016-1.6992 1.5-0.30078 0.39844-0.5 0.69922-0.39844 0.69922 0.10156 0 0.30078-0.10156 0.69922-0.5 0.39844-0.30078 1-0.80078 1.6992-1.1016 0.19922-0.10156 0.39844-0.10156 0.60156-0.19922h0.19922 0.10156v0.10156c0 0.10156-0.10156 0.19922-0.10156 0.30078-0.10156 0.19922-0.19922 0.5-0.39844 0.69922-0.60156 1-1.3008 2.1016-2.1992 3.1992l-0.39844 0.5v0.10156s0 0.10156-0.19922-0.19922c-0.19922-0.19922-0.39844-0.39844-0.5-0.69922-0.30078-0.39844-0.60156-0.89844-0.89844-1.3008-0.30078-0.39844-0.5-0.89844-0.69922-1.3008 0-0.10156-0.10156-0.19922-0.10156-0.30078v-0.10156c0-0.10156 0-0.10156 0.10156-0.10156 0 0 0.19922 0 0.39844 0.10156 0.19922 0.10156 0.30078 0.10156 0.39844 0.19922 0.30078 0.10156 0.5 0.19922 0.69922 0.30078 0.39844 0.19922 0.60156 0.30078 0.69922 0.19922 0 0-0.10156-0.19922-0.5-0.5-0.19922-0.10156-0.39844-0.30078-0.69922-0.5-0.10156-0.10156-0.30078-0.19922-0.5-0.30078-0.20312-0.097657-0.30469-0.19922-0.70312-0.19922-0.30078 0-0.69922 0.19922-0.69922 0.5v0.5c0 0.10156 0.10156 0.30078 0.10156 0.39844 0.19922 0.5 0.39844 0.89844 0.60156 1.3984 0.30078 0.5 0.60156 1 0.89844 1.5 0.19922 0.19922 0.39844 0.5 0.60156 0.69922 0.10156 0.19922 0.60156 0.69922 1 1.1016 0.19922-0.30078 0.5-0.60156 0.69922-0.89844l0.39844-0.5c0.80078-1.1016 1.6016-2.1992 2.1992-3.3008 0.10156-0.30078 0.30078-0.60156 0.39844-0.80078 0.10156-0.10156 0.10156-0.30078 0.10156-0.5 0-0.19922 0-0.5-0.10156-0.69922 0-0.19922-0.30078-0.19922-0.5-0.29688zm18.199 44.199c-5.8008 2.6992-9 3.8008-15.301 5.1992-0.30078 0.10156-0.60156 0.30078-0.69922 0.5-0.19922 0.30078-0.19922 0.60156-0.10156 0.89844l2.5 7.3008c0.19922 0.5 0.69922 0.89844 1.1992 0.89844h0.30078c6.3984-1.3984 9.5-2.5 15.5-5.1992 0.60156-0.30078 0.89844-1 0.69922-1.6016l-2.4961-7.2969c-0.10156-0.30078-0.30078-0.60156-0.60156-0.69922-0.39844-0.19922-0.69922-0.10156-1 0zm-7 7.0977c-0.10156-0.30078-0.30078-0.89844-0.69922-1.6016-0.30078-0.5-0.60156-0.89844-0.80078-1.1992 1.1016-0.30078 2.1992-0.69922 3.1992-1.1016 0.10156 0.30078 0.30078 0.80078 0.69922 1.3008 0.30078 0.39844 0.5 0.80078 0.80078 1.1016-1.1992 0.5-2.1992 1-3.1992 1.5zm-8.3008-1c0-0.10156 0.10156-0.10156 0.19922-0.10156 2.3984-0.5 4.3008-1 6.1016-1.5 0.10156 0.30078 0.39844 0.80078 0.69922 1.3984 0.39844 0.60156 0.80078 1.1016 1 1.3984-1.6016 0.69922-3.1992 1.1992-5.1016 1.8984 0.10156-0.19922 0-0.89844-0.30078-1.6992-0.39844-1.1016-0.80078-1.8008-1-1.8008-0.19922 0-0.10156 0.80078 0.19922 1.8008 0.30078 0.80078 0.60156 1.3984 0.80078 1.6016-0.5 0.19922-1.1016 0.30078-1.6016 0.5l-1.1016-3.3008c0.007812 0.007812 0.007812-0.09375 0.10547-0.19531zm2.9023 7.8008c-0.19922 0.10156-0.5-0.10156-0.5-0.30078l-1.1016-3.1992c1.1016-0.30078 2.1016-0.60156 3-1-0.10156 0.30078 0.10156 1.1016 0.5 2 0.39844 1.1016 0.89844 1.8984 1.1016 1.8008 0.19922-0.10156 0-1-0.39844-2.1016-0.39844-0.89844-0.80078-1.6016-1-1.8008 0.80078-0.30078 1.6016-0.60156 2.3984-0.80078-0.10156 0.19922 0.10156 1 0.5 2 0.39844 1.1016 0.89844 1.8984 1.1016 1.8008 0.19922-0.10156 0-1-0.39844-2.1016-0.39844-1-0.89844-1.8008-1.1016-1.8008 1.3984-0.5 2.8008-1.1016 4.1016-1.8008 0 0.30078 0.30078 1.3008 0.89844 2.3984 0.39844 0.89844 0.80078 1.6016 1.1016 1.8984-3.2031 1.3086-6.0039 2.1094-10.203 3.0078zm15.301-5.0977c-1.8008 0.80078-3.3984 1.5-4.8984 2.1016-0.10156-0.39844-0.39844-1.1992-0.80078-2.1016-0.5-1.1016-1.1016-1.8984-1.3008-2.1016 1-0.5 2.1016-1.1016 3.1992-1.6992 0.10156 0.5 0.39844 1.1992 0.80078 2 0.60156 1.3008 1.3008 2.1992 1.5 2.1016 0.19922-0.10156-0.19922-1.1992-0.80078-2.5-0.39844-0.80078-0.80078-1.5-1.1016-1.8984 0.69922-0.39844 1.3984-0.80078 2.1992-1.1992l1.6016 4.6992c-0.10156 0.19531-0.19922 0.49609-0.39844 0.59766zm-2.3008-8.1016c0.10156 0 0.10156 0.10156 0.10156 0.19922l0.59766 1.8008c-1.8008 1-3.3008 1.8984-4.8008 2.6016-0.10156-0.30078-0.30078-0.80078-0.60156-1.3008-0.30078-0.5-0.60156-0.80078-0.80078-1.1016 0.80078-0.30078 1.6992-0.69922 2.6016-1.1016 0.10156 0.19922 0.19922 0.5 0.39844 0.89844 0.39844 0.60156 0.80078 1.1016 0.89844 1 0.19922-0.10156 0-0.69922-0.30078-1.3008-0.19922-0.30078-0.30078-0.5-0.5-0.69922 0.69922-0.30078 1.3008-0.60156 2.1016-0.89844 0.10547-0.097656 0.10547-0.097656 0.30469-0.097656-0.10156 0-0.10156 0 0 0zm7.2852-28.035c0.14844-0.23047 1.1367 0.14062 2.2031 0.83203 1.0664 0.69141 1.8086 1.4375 1.6562 1.6719-0.14844 0.23047-1.1367-0.14062-2.2031-0.83203-1.0625-0.69141-1.8047-1.4414-1.6562-1.6719zm4.3828-4.957c0.26172-0.089843 0.79688 0.76563 1.1953 1.9141 0.39844 1.1484 0.51172 2.1523 0.25 2.2422-0.26172 0.089844-0.79687-0.76562-1.1953-1.9141s-0.50781-2.1523-0.25-2.2422zm5.375 0.60156c0.019531-1.4922 0.25781-2.6953 0.53516-2.6914 0.27734 0.003906 0.48438 1.2148 0.46484 2.707s-0.25781 2.6953-0.53516 2.6914-0.48438-1.2148-0.46484-2.707zm7.0664-1.2812c0.32031-1.0586 0.79688-1.8477 1.0586-1.7695 0.26562 0.078125 0.21875 1.0039-0.10156 2.0586-0.32031 1.0586-0.79688 1.8477-1.0586 1.7695-0.26562-0.082031-0.21875-1.0039 0.10156-2.0586zm5.4453 1.8906c0.78906-0.69141 1.5742-1.0859 1.7578-0.87891 0.18359 0.20703-0.30859 0.9375-1.0977 1.6289s-1.5742 1.0859-1.7578 0.87891c-0.18359-0.20703 0.30859-0.9375 1.0977-1.6289zm0.53516 5.2461c0.96484-0.41406 1.8359-0.54688 1.9414-0.28906 0.10938 0.25391-0.58594 0.79688-1.5469 1.2109-0.96484 0.41406-1.8359 0.54688-1.9414 0.28906-0.11328-0.25391 0.58203-0.79688 1.5469-1.2109zm-33.289 17.434c0.44141 0 0.80078 0.35937 0.80078 0.80078 0 0.44141-0.35938 0.80078-0.80078 0.80078-0.44141 0-0.80078-0.35938-0.80078-0.80078 0-0.44141 0.35547-0.80078 0.80078-0.80078zm-9.3008 5.6016c0.44141 0 0.80078 0.35938 0.80078 0.80078 0 0.44141-0.35937 0.80078-0.80078 0.80078-0.44141 0-0.80078-0.35937-0.80078-0.80078 0-0.44141 0.35938-0.80078 0.80078-0.80078zm-8.0312 25.828c0.27344-0.027344 0.73047 2.2188 1.0195 5.0234 0.28906 2.8008 0.30078 5.0977 0.023438 5.125-0.27344 0.027344-0.73047-2.2188-1.0195-5.0234-0.28906-2.8008-0.30078-5.0977-0.023438-5.125zm22.031 2.1719c-0.19922 0.69922-0.39844 1.3984-0.60156 2.1016-0.19922 0.69922-0.30078 1.3008-0.5 1.8008-0.19922 1-0.30078 1.6992-0.19922 1.6992s0.39844-0.5 0.80078-1.5c0.19922-0.5 0.39844-1.1016 0.69922-1.8008 0.10156-0.30078 0.19922-0.69922 0.39844-1.1016 0.10156-0.39844 0.30078-0.89844 0.39844-1.3008-0.19922-0.5-0.39844-1-0.60156-1.3984-1.6992-3.6992-3.1992-6.6016-3.3984-6.5s0.89844 3.1992 2.6016 6.8984c0.10156 0.40234 0.20312 0.80078 0.40234 1.1016zm-27.402 13.801c-0.10156 0-0.10156 0.19922-0.39844 0.30078-0.19922 0.10156-0.60156 0-0.60156-0.30078s0.39844-0.39844 0.60156-0.30078c0.19922 0 0.30078 0.30078 0.39844 0.30078 0.10156 0 0.19922-0.30078-0.10156-0.60156-0.19922-0.19922-0.5-0.30078-0.80078-0.19922-0.30078 0.10156-0.60156 0.39844-0.60156 0.80078 0 0.39844 0.30078 0.69922 0.60156 0.80078 0.30078 0.10156 0.60156 0 0.80078-0.19922 0.30469-0.40234 0.10156-0.70312 0.10156-0.60156zm7-0.80078c-0.19922-0.19922-0.60156-0.30078-1-0.19922-0.39844 0.10156-0.69922 0.5-0.69922 1s0.30078 0.89844 0.69922 1c0.39844 0.10156 0.80078 0 1-0.19922 0.39844-0.39844 0.30078-0.80078 0.19922-0.80078-0.10156 0-0.10156 0.30078-0.39844 0.5-0.19922 0.10156-0.39844 0.10156-0.60156 0-0.19922-0.10156-0.30078-0.30078-0.30078-0.5s0.19922-0.39844 0.30078-0.5c0.19922-0.10156 0.39844-0.10156 0.60156 0 0.30078 0.19922 0.39844 0.5 0.39844 0.5 0.003906 0 0.20312-0.40234-0.19922-0.80078zm24.703 0.80078c0.30078 0.10156 0.60156 0 0.80078-0.19922 0.30078-0.39844 0.19922-0.69922 0.10156-0.69922-0.10156 0-0.10156 0.19922-0.39844 0.39844-0.19922 0.10156-0.60156 0-0.60156-0.39844 0-0.30078 0.39844-0.5 0.60156-0.39844 0.19922 0.10156 0.30078 0.39844 0.39844 0.39844 0.10156 0 0.19922-0.30078-0.10156-0.69922-0.19922-0.19922-0.5-0.30078-0.80078-0.19922-0.30078 0.10156-0.60156 0.39844-0.60156 0.80078 0 0.59375 0.30078 0.89453 0.60156 0.99609zm-34.102-22.602c-0.39844-0.19922-0.80078-0.30078-1.1992-0.19922-0.69922 0.30078-1.1016 1.1992-0.69922 2.1016 0.19922 0.39844 0.39844 0.80078 0.80078 1 0.19922 0.19922 0.5 0.19922 0.80078 0.19922 0.10156 0 0.30078 0 0.39844-0.10156 0.30078-0.10156 0.60156-0.39844 0.69922-0.69922 0.19922-0.39844 0.19922-1 0-1.5-0.19922-0.19922-0.40234-0.60156-0.80078-0.80078zm0 2.1016c0 0.10156-0.10156 0.19922-0.19922 0.19922-0.19922 0.10156-0.30078 0-0.39844-0.10156-0.19922-0.10156-0.30078-0.30078-0.39844-0.60156-0.19922-0.5 0-1 0.19922-1.1016h0.10156c0.10156 0 0.19922 0.10156 0.30078 0.10156 0.19922 0.10156 0.30078 0.30078 0.39844 0.60156 0.097656 0.40234 0.097656 0.70312-0.003906 0.90234z"/>
</svg>
